# xmcd
#
# Track frame offsets: 
#        150
#        19860
#        40577
#        61688
#        83773
#        105620
#        125788
#        144449
#        162633
#        183265
#        201827
#        225389
#        242849
#        270494
#        291382
#        310370
#
# Disc length: 4567 seconds
#
# Revision: 1
# Processed by: cddbd v1.5.2PL0 Copyright (c) Steve Scherf et al.
# Submitted via: ExactAudioCopy v0.95b4
#
DISCID=de11d510
DTITLE=Various Artist - Time Life- Body and Soul: Midnight Fire
DYEAR=2006
DGENRE=Rap/R&B
TTITLE0=Maria Maria/Santana and The Product G&B
TTITLE1=When A Woman's Fed Up/R. Kelly
TTITLE2=A Long Walk/Jill Scott
TTITLE3=How You Gonna Act Like That/Tyrese
TTITLE4=Spanish Guitar/Toni Braxton
TTITLE5=Are U Still Down?/Jon B
TTITLE6=These Are The Times/Dru Hill
TTITLE7=U Know What's Up/Donnell Jones
TTITLE8=Incomplete/Sisqo
TTITLE9=Promise/Jagged Edge
TTITLE10=Be Careful/Sparkle and R. Kelly
TTITLE11=Stutter/Joe
TTITLE12=You Don't Know My Name/Alicia Keys
TTITLE13=So Anxious/Ginuwine
TTITLE14=Cry/Lyfe Jennings
TTITLE15=Untitled (How Does It Feel)/D'Angelo
EXTD=
EXTT0=
EXTT1=
EXTT2=
EXTT3=
EXTT4=
EXTT5=
EXTT6=
EXTT7=
EXTT8=
EXTT9=
EXTT10=
EXTT11=
EXTT12=
EXTT13=
EXTT14=
EXTT15=
PLAYORDER=
